# AST/ASF file generated using VICON BodyLanguage
# -----------------------------------------------
:version 1.10
:name VICON
:units
  mass 1.0
  length 0.45
  angle deg
:documentation
   .ast/.asf automatically generated from VICON data using
   VICON BodyBuilder and BodyLanguage model FoxedUp or BRILLIANT.MOD
:root
   order TX TY TZ RX RY RZ
   axis XYZ
   position 0 0 0  
   orientation 0 0 0 
:bonedata
  begin
     id 1 
     name lhipjoint
     direction 0.570549 -0.739093 0.358072 
     length 2.41801 
     axis 0 0 0  XYZ
  end
  begin
     id 2 
     name lfemur
     direction 0.34202 -0.939693 0  
     length 7.44434  
     axis 0 0 20  XYZ
    dof rx ry rz
    limits (-160.0 20.0)
           (-70.0 70.0)
           (-60.0 70.0)
  end
  begin
     id 3 
     name ltibia
     direction 0.34202 -0.939693 0   
     length 7.60047   
     axis 0 0 20   XYZ
    dof rx
    limits (-10.0 170.0)
  end
  begin
     id 4 
     name lfoot
     direction 0.0909041 -0.249757 0.964032   
     length 2.03437   
     axis -90 7.62852e-016 20   XYZ
    dof rx rz
    limits (-45.0 90.0)
           (-70.0 20.0)
  end
  begin
     id 5 
     name ltoes
     direction 1.53547e-011 -4.2174e-011 1   
     length 1.02054   
     axis -90 7.62852e-016 20   XYZ
    dof rx
    limits (-90.0 20.0)
  end
  begin
     id 6 
     name rhipjoint
     direction -0.558096 -0.746754 0.361784   
     length 2.3932  
     axis 0 0 0  XYZ 
  end
  begin
     id 7 
     name rfemur
     direction -0.34202 -0.939693 0   
     length 7.3886   
     axis 0 0 -20   XYZ
    dof rx ry rz
    limits (-160.0 20.0)
           (-70.0 70.0)
           (-70.0 60.0)
  end
  begin
     id 8 
     name rtibia
     direction -0.34202 -0.939693 0   
     length 7.4839   
     axis 0 0 -20   XYZ
    dof rx
    limits (-10.0 170.0)
 end
 begin
     id 9 
     name rfoot
     direction -0.114619 -0.314914 0.942174   
     length 2.25127  
     axis -90 -7.62852e-016 -20   XYZ
    dof rx rz
    limits (-45.0 90.0)
           (-20.0 70.0)
  end
  begin
     id 10 
     name rtoes
     direction -1.53518e-011 -4.21881e-011 1   
     length 1.11821   
     axis -90 -7.62852e-016 -20   XYZ
    dof rx
    limits (-90.0 20.0)
  end
  begin
     id 11 
     name lowerback
     direction -0.00902269 0.996426 -0.0839821   
     length 2.25052   
     axis 0 0 0   XYZ
    dof rx ry rz
    limits (-20.0 45.0)
           (-30.0 30.0)
           (-30.0 30.0)
  end
  begin
     id 12 
     name upperback
     direction 0.0370973 0.999169 -0.0168941   
     length 2.24876   
     axis 0 0 0   XYZ
    dof rx ry rz
    limits (-20.0 45.0)
           (-30.0 30.0)
           (-30.0 30.0)
  end
  begin
     id 13 
     name thorax
     direction 0.0402726 0.998931 0.0227027   
     length 2.26408   
     axis 0 0 0   XYZ
    dof rx ry rz
    limits (-20.0 45.0)
           (-30.0 30.0)
           (-30.0 30.0)
  end
  begin
     id 14 
     name lowerneck
     direction -0.0733697 0.98508 0.155675   
     length 1.58204   
     axis 0 0 0   XYZ
    dof rx ry rz
    limits (-20.0 45.0)
           (-30.0 30.0)
           (-30.0 30.0)
  end
  begin
     id 15 
     name upperneck
     direction 0.0426554 0.993501 -0.105526   
     length 1.61222   
     axis 0 0 0   XYZ
    dof rx ry rz
    limits (-20.0 45.0)
           (-30.0 30.0)
           (-30.0 30.0)
  end
  begin
     id 16
     name head
     direction 0.020792 0.998384 -0.0528868  
     length 1.61527  
     axis 0 0 0   XYZ
    dof rx ry rz
    limits (-20.0 45.0)
           (-30.0 30.0)
           (-30.0 30.0)
  end
  begin
     id 17 
     name lclavicle
     direction 0.967109 0.155462 -0.201325  
     length 3.59357  
     axis 0 0 0   XYZ
    dof ry rz
    limits (-20.0 10.0)
           (0.0 20.0)
  end
  begin
     id 18 
     name lhumerus
     direction 1 -4.48968e-011 2.38195e-027   
     length 5.38154   
     axis 180 -30 -90   XYZ
    dof rx ry rz
    limits (-60.0 90.0)
           (-90.0 90.0)
           (-90.0 90.0)
  end
  begin
     id 19
     name lradius
     direction 1 -4.48961e-011 4.85371e-027   
     length 3.33312   
     axis 180 -30 -90   XYZ
    dof rx
    limits (-10.0 170.0)
  end
  begin
     id 20
     name lwrist
     direction 1 -4.48961e-011 4.76515e-027   
     length 1.66656   
     axis -3.27502e-015 90 90   XYZ
    dof ry
    limits (-180.0 0.0)
 end
  begin
     id 21 
     name lhand
     direction 1 -4.48951e-011 9.53074e-027   
     length 0.710789   
     axis -6.08098e-015 90 90   XYZ
    dof rx rz
    limits (-90.0 90.0)
           (-45.0 45.0)
  end
  begin
     id 22 
     name lfingers
     direction 1 -4.48953e-011 1.90613e-026   
     length 0.573057   
     axis -1.21619e-014 90 90   XYZ
    dof rx
    limits (0.0 90.0)
  end
  begin
     id 23
     name lthumb
     direction 0.707107 -6.34973e-011 0.707107   
     length 0.822798   
     axis -90 45 -9.86923e-015   XYZ
    dof rx rz
    limits (-45.0 45.0)
           (-45.0 45.0)
  end
  begin
     id 24 
     name rclavicle
     direction -0.9585 0.265289 -0.104398   
     length 3.42039  
     axis 0 0 0   XYZ 
    dof ry rz
    limits (-10.0 20.0)
           (-20.0 0.0)
  end
  begin
     id 25 
     name rhumerus
     direction -1 -4.48977e-011 2.21478e-027  
     length 5.16954   
     axis 180 30 90   XYZ
    dof rx ry rz
    limits (-90.0 60.0)
           (-90.0 90.0)
           (-90.0 90.0)
  end
  begin
     id 26 
     name rradius
     direction -1 -4.48967e-011 5.63677e-027   
     length 3.38287   
     axis 180 30 90   XYZ
    dof rx
    limits (-10.0 170.0)
  end
  begin
     id 27 
     name rwrist
     direction -1 -4.48967e-011 4.76501e-027   
     length 1.69144   
     axis -3.27502e-015 -90 -90   XYZ
    dof ry
    limits (-180.0 0.0)
  end
  begin
     id 28
     name rhand
     direction -1 -4.48902e-011 9.53292e-027   
     length 0.817967   
     axis -6.08098e-015 -90 -90   XYZ
    dof rx rz
    limits (-90.0 90.0)
           (-45.0 45.0)
  end
  begin
     id 29
     name rfingers
     direction -1 -4.49012e-011 1.90561e-026   
     length 0.659466   
     axis -1.21619e-014 -90 -90   XYZ
    dof rx
    limits (0.0 90.0)
  end
  begin
     id 30
     name rthumb
     direction -0.707107 -6.34944e-011 0.707107   
     length 0.946865   
     axis -90 -45 9.86923e-015   XYZ
    dof rx rz
    limits (-45.0 45.0)
           (-45.0 45.0)
  end
:hierarchy
  begin
    root lhipjoint rhipjoint lowerback
    lhipjoint lfemur
    lfemur ltibia
    ltibia lfoot
    lfoot ltoes
    rhipjoint rfemur
    rfemur rtibia
    rtibia rfoot
    rfoot rtoes
    lowerback upperback
    upperback thorax
    thorax lowerneck lclavicle rclavicle
    lowerneck upperneck
    upperneck head
    lclavicle lhumerus
    lhumerus lradius
    lradius lwrist
    lwrist lhand lthumb
    lhand lfingers
    rclavicle rhumerus
    rhumerus rradius
    rradius rwrist
    rwrist rhand rthumb
    rhand rfingers
  end

#!OML:ASF F:\twosubjects\two\wednesday\Session 1\Justin1.ASF
:FULLY-SPECIFIED
:DEGREES
181
root 3.79075 17.601 14.2381 1.06552 4.82166 5.94256
lowerback 0.729885 -2.80124 -7.13749
upperback 0.133897 -3.7886 1.61822
thorax 0.302631 -1.91421 5.67848
lowerneck -17.3507 -1.52191 -8.94749
upperneck 19.9539 -0.602265 4.13241
head 9.18751 -0.507802 2.83038
rclavicle 1.00635e-014 -1.43125e-014
rhumerus -44.6223 -18.4057 -73.6362
rradius 22.2738
rwrist -7.81306
rhand -14.4272 16.1885
rfingers 7.12502
rthumb 11.7171 -13.4639
lclavicle 1.00635e-014 -1.43125e-014
lhumerus -0.0632905 12.4363 85.2248
lradius 29.7044
lwrist -3.92197
lhand 0.185529 38.6996
lfingers 7.12502
lthumb 25.7681 66.9747
rfemur -31.7656 -0.424903 13.5667
rtibia 14.3892
rfoot -14.3122 -13.2627
rtoes -3.76819
lfemur 12.6157 -0.668398 -28.2746
ltibia 13.6849
lfoot -13.8173 -12.3175
ltoes -3.42317
182
root 3.79038 17.576 14.4274 1.12529 4.91418 6.38049
lowerback 0.745805 -2.88491 -7.42582
upperback 0.249153 -3.89986 1.43721
thorax 0.43667 -1.97863 5.64663
lowerneck -17.4691 -1.41162 -9.17068
upperneck 19.7823 -0.485588 4.61703
head 9.14026 -0.411821 3.04885
rclavicle 4.84289e-014 2.14687e-014
rhumerus -45.259 -18.8331 -73.2066
rradius 21.9377
rwrist -7.30493
rhand -14.0832 15.8414
rfingers 7.12502
rthumb 12.0489 -13.7918
lclavicle 4.84289e-014 2.14687e-014
lhumerus 0.797463 12.273 85.027
lradius 30.4632
lwrist -3.26177
lhand 0.629054 38.5269
lfingers 7.12502
lthumb 26.1928 66.7397
rfemur -32.0759 -2.04093 13.9036
rtibia 15.0571
rfoot -13.3743 -11.8014
rtoes -5.03635
lfemur 13.5414 -0.650593 -28.6369
ltibia 13.1767
lfoot -13.4342 -12.6504
ltoes -7.01353
183
root 3.78753 17.5543 14.609 1.00949 4.98707 6.71057
lowerback 0.807723 -2.90017 -7.62987
upperback 0.595128 -3.91495 1.27634
thorax 0.765877 -2.0101 5.58444
lowerneck -17.8941 -1.38489 -9.08729
upperneck 19.4759 -0.456516 4.7522
head 9.10802 -0.36696 3.08244
rclavicle -1.99282e-014 -2.8625e-014
rhumerus -45.6453 -19.6716 -72.6559
rradius 21.6056
rwrist -6.55556
rhand -13.5558 15.1719
rfingers 7.12502
rthumb 12.5574 -14.4308
lclavicle -1.99282e-014 -2.8625e-014
lhumerus 2.0268 11.9314 84.9939
lradius 31.1322
lwrist -2.69174
lhand 0.266214 38.3691
lfingers 7.12502
lthumb 25.8453 66.633
rfemur -32.3864 -3.31403 14.2333
rtibia 16.2103
rfoot -12.7951 -10.4576
rtoes -4.55982
lfemur 14.7818 -0.946711 -28.985
ltibia 12.4043
lfoot -12.8952 -12.5643
ltoes -10.0109
184
root 3.77992 17.5389 14.7874 0.814523 5.09429 6.94253
lowerback 1.29561 -2.85487 -7.77097
upperback 0.544685 -3.89715 1.21291
thorax 0.442017 -1.9869 5.62788
lowerneck -17.9818 -1.4814 -8.90984
upperneck 19.5763 -0.536302 4.33138
head 9.16538 -0.439128 2.89819
rclavicle 7.30534e-015 1.66979e-014
rhumerus -46.7141 -20.515 -71.4963
rradius 21.1919
rwrist -5.42895
rhand -12.9994 14.4094
rfingers 7.12502
rthumb 13.0938 -15.1596
lclavicle 7.30534e-015 1.66979e-014
lhumerus 2.42069 12.0362 85.2061
lradius 31.9926
lwrist -2.81565
lhand 0.120762 38.6545
lfingers 7.12502
lthumb 25.706 66.9386
rfemur -32.4411 -3.97786 14.3373
rtibia 17.3157
rfoot -12.5962 -9.40093
rtoes -3.18025
lfemur 15.9632 -1.26238 -29.2104
ltibia 11.7622
lfoot -12.1752 -12.5922
ltoes -10.2719
185
root 3.75825 17.5242 14.9834 0.756107 5.13268 7.38604
lowerback 1.56164 -2.87947 -8.39177
upperback 0.405104 -3.96643 1.19332
thorax 0.19986 -2.00874 5.97618
lowerneck -17.8863 -1.43329 -8.69165
upperneck 19.7771 -0.420416 3.80352
head 9.21015 -0.432475 2.69592
rclavicle 2.21148e-014 1.98785e-014
rhumerus -47.6912 -20.8835 -70.4157
rradius 20.5653
rwrist -4.6624
rhand -12.9288 14.4965
rfingers 7.12502
rthumb 13.1618 -15.068
lclavicle 2.21148e-014 1.98785e-014
lhumerus 2.56094 12.0581 85.2531
lradius 32.7595
lwrist -2.45177
lhand 0.0683948 38.6985
lfingers 7.12502
lthumb 25.6559 66.9898
rfemur -32.3413 -3.82563 13.9073
rtibia 18.1422
rfoot -12.376 -8.7225
rtoes -3.77636
lfemur 16.6445 -1.58594 -29.6381
ltibia 11.681
lfoot -11.6121 -12.7715
ltoes -9.9192
186
root 3.72901 17.5117 15.193 0.864832 5.20761 7.42515
lowerback 1.31124 -2.95882 -8.63903
upperback 0.474518 -4.0501 1.25008
thorax 0.448325 -2.06532 6.15601
lowerneck -17.7188 -1.3427 -8.94815
upperneck 19.6083 -0.288485 4.02277
head 9.11223 -0.363209 2.82805
rclavicle 2.00276e-014 -8.74653e-015
rhumerus -48.3205 -21.2887 -69.655
rradius 20.0635
rwrist -4.18041
rhand -13.002 14.8935
rfingers 7.12502
rthumb 13.0912 -14.6756
lclavicle 2.00276e-014 -8.74653e-015
lhumerus 3.02015 11.4611 85.0177
lradius 33.4137
lwrist -1.21417
lhand -0.184853 38.3322
lfingers 7.12502
lthumb 25.4133 66.6582
rfemur -32.2558 -3.17316 13.747
rtibia 18.8893
rfoot -12.3623 -8.1757
rtoes -5.8313
lfemur 17.1046 -2.06777 -29.6061
ltibia 11.839
lfoot -10.9626 -13.0003
ltoes -10.253
187
root 3.71989 17.5036 15.3999 0.963111 5.6519 7.25065
lowerback 1.29296 -3.16837 -8.44185
upperback 0.417776 -4.32788 1.35548
thorax 0.440357 -2.20199 6.15182
lowerneck -19.4049 -1.71955 -8.26144
upperneck 20.5173 -0.661649 3.2087
head 9.763 -0.586428 2.39932
rclavicle -3.65764e-014 -7.15625e-015
rhumerus -49.1307 -21.7588 -68.7151
rradius 19.7052
rwrist -3.15165
rhand -12.7591 14.5024
rfingers 7.12502
rthumb 13.3254 -15.0515
lclavicle -3.65764e-014 -7.15625e-015
lhumerus 3.03897 11.1121 84.7916
lradius 34.3101
lwrist -0.445703
lhand -0.296084 37.9364
lfingers 7.12502
lthumb 25.3067 66.2776
rfemur -31.8322 -3.46536 13.941
rtibia 19.2037
rfoot -12.3072 -6.88262
rtoes -6.96996
lfemur 17.4361 -2.46961 -29.2523
ltibia 12.3431
lfoot -9.91921 -13.7335
ltoes -8.87519
188
root 3.72917 17.4895 15.6033 0.879463 6.30598 7.34985
lowerback 1.45966 -3.43595 -8.3834
upperback 0.439737 -4.69825 1.40498
thorax 0.431826 -2.38801 6.1743
lowerneck -21.4173 -2.04456 -6.44147
upperneck 21.3804 -0.898346 0.741824
head 10.4439 -0.859397 1.19209
rclavicle 3.3197e-014 -8.74653e-015
rhumerus -49.8221 -22.3844 -67.5564
rradius 19.3317
rwrist -1.93447
rhand -12.5538 13.843
rfingers 7.12502
rthumb 13.5233 -15.6979
lclavicle 3.3197e-014 -8.74653e-015
lhumerus 3.13551 11.2118 84.8038
lradius 35.1674
lwrist -0.32952
lhand -0.115442 37.8092
lfingers 7.12502
lthumb 25.4798 66.1258
rfemur -31.0792 -4.28621 13.7878
rtibia 19.3752
rfoot -12.0393 -4.83746
rtoes -6.24437
lfemur 17.715 -2.71823 -29.193
ltibia 13.0724
lfoot -8.94523 -14.6006
ltoes -8.14445
189
root 3.67643 17.4945 15.8368 0.749279 6.1647 6.18945
lowerback 1.01976 -3.37732 -7.70618
upperback 0.594346 -4.5722 1.8204
thorax 0.799066 -2.34547 6.19523
lowerneck -19.3694 -1.62435 -7.57464
upperneck 19.9426 -0.499192 2.20616
head 9.54133 -0.562681 1.94855
rclavicle -3.48867e-014 2.22639e-014
rhumerus -50.4783 -22.9344 -66.699
rradius 18.9583
rwrist -1.63939
rhand -12.5464 13.9561
rfingers 7.12502
rthumb 13.5304 -15.5843
lclavicle -3.48867e-014 2.22639e-014
lhumerus 3.47894 10.9238 84.7609
lradius 35.9458
lwrist -0.0452166
lhand -0.452094 37.949
lfingers 7.12502
lthumb 25.1573 66.3112
rfemur -30.376 -1.72962 14.4541
rtibia 19.6451
rfoot -11.9554 -5.17018
rtoes -4.6359
lfemur 17.6031 -2.96913 -27.747
ltibia 13.8198
lfoot -7.16658 -14.9793
ltoes -2.4247
190
root 3.65136 17.5038 16.0631 0.838975 6.37038 5.93755
lowerback 0.832798 -3.41025 -7.44862
upperback 0.444986 -4.60406 1.86238
thorax 0.736677 -2.35267 6.08689
lowerneck -16.9147 -1.15787 -9.53211
upperneck 18.2924 -0.113787 4.78791
head 8.50147 -0.218406 3.18193
rclavicle 7.5737e-014 -9.54166e-015
rhumerus -51.476 -23.36 -65.7297
rradius 18.5775
rwrist -1.30007
rhand -12.7155 14.0412
rfingers 7.12502
rthumb 13.3675 -15.51
lclavicle 7.5737e-014 -9.54166e-015
lhumerus 3.30869 10.4813 84.5869
lradius 36.8273
lwrist 0.26048
lhand -1.41949 37.2958
lfingers 7.12502
lthumb 24.2301 65.7849
rfemur -29.9491 -1.22003 14.7319
rtibia 20.0489
rfoot -10.9222 -4.90809
rtoes -9.41548
lfemur 17.5604 -3.71294 -27.4782
ltibia 14.4822
lfoot -4.75593 -14.8818
ltoes 6.01837
191
root 3.63754 17.5129 16.2794 1.08763 6.77579 6.23752
lowerback 0.827231 -3.59069 -7.74124
upperback 0.131328 -4.85536 1.85379
thorax 0.478068 -2.45891 6.24889
lowerneck -19.0724 -1.62958 -8.29018
upperneck 20.1943 -0.539132 3.12884
head 9.58046 -0.536111 2.38747
rclavicle 1.80149e-014 2.22639e-014
rhumerus -52.5413 -23.7905 -64.4052
rradius 18.1995
rwrist -0.266289
rhand -12.7355 13.6351
rfingers 7.12502
rthumb 13.3481 -15.9174
lclavicle 1.80149e-014 2.22639e-014
lhumerus 2.80439 10.4429 84.4854
lradius 37.6765
lwrist 0.452593
lhand -1.96143 36.0828
lfingers 7.12502
lthumb 23.7104 64.6403
rfemur -29.7711 -1.38401 14.4434
rtibia 20.3062
rfoot -9.12493 -5.01984
rtoes -10.6602
lfemur 17.745 -4.14023 -27.6841
ltibia 15.3252
lfoot -3.94557 -14.9596
ltoes 2.21819
192
root 3.62301 17.5307 16.4911 1.35343 7.01873 6.38289
lowerback 0.663914 -3.70657 -7.97238
upperback -0.0336918 -5.00388 1.94266
thorax 0.450588 -2.52784 6.46337
lowerneck -16.4259 -0.834555 -10.3311
upperneck 18.3109 0.301824 5.66435
head 8.38087 0.00895101 3.6602
rclavicle -4.79071e-014 -2.94201e-014
rhumerus -53.3437 -24.243 -63.1814
rradius 17.8939
rwrist 0.583283
rhand -12.3886 13.0648
rfingers 7.12502
rthumb 13.6825 -16.4654
lclavicle -4.79071e-014 -2.94201e-014
lhumerus 2.7923 10.5682 84.595
lradius 38.1777
lwrist 0.430975
lhand -2.04544 35.4458
lfingers 7.12502
lthumb 23.6298 64.0137
rfemur -29.8929 -1.25203 14.176
rtibia 20.5802
rfoot -6.81371 -5.27308
rtoes -8.7455
lfemur 17.8235 -4.30252 -27.6769
ltibia 16.386
lfoot -4.15159 -15.2186
ltoes -8.33694
193
root 3.60739 17.567 16.7114 1.36951 6.98461 5.49913
lowerback 0.627313 -3.67646 -7.18671
upperback -0.248959 -4.96053 2.3147
thorax 0.206939 -2.48953 6.41979
lowerneck -16.5725 -1.00514 -10.1399
upperneck 18.848 0.166637 5.0116
head 8.60664 -0.121192 3.40124
rclavicle 9.11925e-015 -7.95139e-016
rhumerus -54.388 -24.5343 -61.8666
rradius 17.7475
rwrist 1.07943
rhand -12.0844 12.3779
rfingers 7.12502
rthumb 13.9757 -17.1324
lclavicle 9.11925e-015 -7.95139e-016
lhumerus 2.67217 10.7435 84.8264
lradius 38.4795
lwrist 0.240863
lhand -1.80529 35.446
lfingers 7.12502
lthumb 23.8601 63.984
rfemur -29.6722 -0.92698 15.1645
rtibia 20.6157
rfoot -4.19843 -5.38199
rtoes -7.68883
lfemur 17.67 -4.62151 -26.721
ltibia 17.855
lfoot -3.79222 -15.0221
ltoes -13.154
194
root 3.59083 17.6053 16.9385 1.12722 6.65804 3.50631
lowerback 0.879756 -3.58012 -5.30173
upperback -0.55695 -4.82766 2.99903
thorax -0.369949 -2.39683 6.10861
lowerneck -16.0422 -0.870602 -9.76099
upperneck 18.8096 0.357546 4.27028
head 8.48849 -0.085353 3.10126
rclavicle -1.86858e-014 2.38542e-015
rhumerus -55.4464 -24.4722 -60.6596
rradius 17.558
rwrist 1.34892
rhand -11.8376 12.0527
rfingers 7.12502
rthumb 14.2135 -17.441
lclavicle -1.86858e-014 2.38542e-015
lhumerus 1.92375 10.9304 84.9041
lradius 39.1386
lwrist 0.360059
lhand -1.42569 35.5341
lfingers 7.12502
lthumb 24.2241 64.024
rfemur -28.8953 -0.0976023 17.3705
rtibia 20.3185
rfoot -1.86433 -5.95669
rtoes -7.61529
lfemur 17.3281 -4.80364 -24.6011
ltibia 19.6655
lfoot -2.43586 -14.6558
ltoes -12.8291
